PathFileType	4	(X/Y/Z)	C:/Users/opensim2020/Desktop/walking_exp_matlab/subject06_walking17_straight_03.trc	
DataRate	CameraRate	NumFrames	NumMarkers	Units	OrigDataRate	OrigDataStartFrame	OrigNumFrames	
100.00	100.00	6	45	mm	100.00	3429	295	
Frame#	Time	LFHD			RFHD			LBHD			RBHD			C7			T10			CLAV			STRN			RBAK			LSHO			LUPA			LELB			LFRM			LWRA			LWRB			LFIN			RSHO			RUPA			RELB			RFRM			RWRA			RWRB			RFIN			LASI			RASI			LPSI			RPSI			LTHI			LKNE			LTIB			LANK			LHEE			LTOE			RTHI			RKNE			RTIB			RANK			RHEE			RTOE			*39			*40			*41			*42			*43			*44			
		X1	Y1	Z1	X2	Y2	Z2	X3	Y3	Z3	X4	Y4	Z4	X5	Y5	Z5	X6	Y6	Z6	X7	Y7	Z7	X8	Y8	Z8	X9	Y9	Z9	X10	Y10	Z10	X11	Y11	Z11	X12	Y12	Z12	X13	Y13	Z13	X14	Y14	Z14	X15	Y15	Z15	X16	Y16	Z16	X17	Y17	Z17	X18	Y18	Z18	X19	Y19	Z19	X20	Y20	Z20	X21	Y21	Z21	X22	Y22	Z22	X23	Y23	Z23	X24	Y24	Z24	X25	Y25	Z25	X26	Y26	Z26	X27	Y27	Z27	X28	Y28	Z28	X29	Y29	Z29	X30	Y30	Z30	X31	Y31	Z31	X32	Y32	Z32	X33	Y33	Z33	X34	Y34	Z34	X35	Y35	Z35	X36	Y36	Z36	X37	Y37	Z37	X38	Y38	Z38	X39	Y39	Z39	X40	Y40	Z40	X41	Y41	Z41	X42	Y42	Z42	X43	Y43	Z43	X44	Y44	Z44	X45	Y45	Z45	

222	2.210	-1088.41785	628.87305	1667.51379	-959.80371	605.96240	1650.23792	-1115.73242	499.70422	1612.03638	-988.78180	478.02649	1599.68384	-1058.70044	488.88782	1453.99316	-1046.41162	449.90005	1125.60632	-1047.07800	597.15192	1374.40759	-1049.49573	633.58734	1198.71277	-981.46735	408.24597	1285.25232	-1212.29382	558.03638	1406.87805	-1285.03821	587.99561	1206.69775	-1296.76685	606.70935	1095.55029	-1312.21875	669.51532	958.11310	-1259.69458	749.43347	861.58771	-1306.06250	699.86426	842.74908	-1301.21948	761.08911	776.58325	-890.54791	542.09680	1408.46826	-804.18243	495.98190	1211.20984	-791.70166	503.10388	1089.11182	-774.19897	520.04205	970.12036	-803.90002	584.18915	832.41260	-765.31683	529.53833	832.66095	-761.59900	568.75476	757.94104	-1141.93323	633.58795	962.02832	-920.90057	620.91193	972.79810	-1121.34399	473.95398	992.16797	-952.60406	470.55811	994.93457	-1188.65381	555.20825	646.41748	-1161.39478	543.38245	483.49927	-1141.15186	485.03546	232.39499	-1086.75806	465.00531	64.26028	-1041.29810	423.06046	53.04367	-1081.87549	609.67352	35.06530	-862.35199	638.49023	646.24231	-885.75262	680.83124	527.75140	-885.20471	573.22968	289.22989	-923.27686	502.59998	115.58758	-970.24188	460.60336	97.39308	-912.74921	638.76971	48.52561	-1047.00439	519.20526	1701.97314															 
223	2.220	-1088.34570	635.23761	1667.27356	-959.77985	612.14703	1649.69006	-1115.93469	506.08099	1611.82239	-989.03894	484.20264	1599.17041	-1059.28296	495.26135	1453.70984	-1047.21960	455.98016	1125.33069	-1047.61584	603.36053	1374.03271	-1050.21240	639.57385	1198.27551	-982.51544	414.19907	1285.05957	-1212.82019	564.68726	1406.73560	-1285.36096	596.06415	1206.77612	-1297.06836	615.79608	1095.76013	-1312.03406	680.65039	959.24078	-1258.74377	761.92914	864.22046	-1304.98901	712.63367	844.17090	-1299.97449	774.88629	779.17554	-891.07019	548.06213	1407.86462	-805.21753	500.97977	1210.56165	-792.83002	507.70810	1088.42310	-775.34967	524.16217	969.37451	-804.87561	587.94745	831.47101	-766.54773	533.09631	831.91406	-762.60992	571.98523	757.10315	-1142.67798	639.30621	961.50360	-921.39441	626.98010	972.74689	-1121.65942	479.57382	991.73846	-952.96570	476.61304	994.75488	-1188.56213	559.69806	645.93036	-1161.05652	547.15765	482.93771	-1141.02209	486.70697	232.37184	-1086.61731	465.19809	64.42237	-1041.12048	423.20093	53.32257	-1081.82068	609.76233	34.98549	-862.91138	646.15759	646.78204	-887.09564	689.10614	528.55530	-886.30383	588.64514	286.69250	-924.61713	524.17688	110.72267	-971.75201	482.70709	91.42769	-913.84644	662.33411	47.79838	-1046.94592	525.48621	1701.57214															 
224	2.230	-1088.24243	641.61078	1667.01941	-959.72614	618.35364	1649.11877	-1116.09265	512.45978	1611.62817	-989.25256	490.52710	1598.66760	-1059.87830	501.67441	1453.42432	-1047.91553	461.90625	1125.09888	-1048.07739	609.59656	1373.66113	-1050.96777	645.65277	1197.86523	-983.60034	420.19656	1284.71814	-1213.25916	571.27289	1406.51697	-1285.65833	604.04376	1206.77869	-1297.29443	624.67950	1095.89563	-1312.06470	691.82361	960.35883	-1257.88806	774.09241	866.70288	-1303.95813	725.29346	845.71228	-1298.51782	788.53131	781.76263	-891.56543	553.96277	1407.26245	-806.21930	506.06546	1209.89832	-793.95679	512.35168	1087.78748	-776.46472	528.29578	968.63654	-805.81488	591.64508	830.51544	-767.60730	536.60181	831.21881	-763.75726	575.45428	756.24890	-1143.39307	645.01593	960.96313	-921.95490	633.20728	972.68488	-1122.01929	485.37735	991.25214	-953.37878	482.73386	994.42365	-1188.55273	564.20947	645.47748	-1161.11108	551.09998	482.58954	-1140.93848	488.43274	232.45306	-1086.51855	465.42941	64.60334	-1041.00940	423.39215	53.63226	-1081.85315	609.84979	35.06786	-863.62616	653.43073	647.35815	-888.00433	697.31433	529.34576	-887.31866	604.20490	284.22501	-925.66858	545.61725	106.36443	-972.99438	504.87656	85.85937	-915.26917	685.89526	47.07218	-1046.87988	531.82129	1701.22791															 
225	2.240	-1088.10815	648.13098	1666.78662	-959.66211	624.61292	1648.52063	-1116.24463	518.95294	1611.41479	-989.42554	496.73071	1598.14648	-1060.44385	507.99326	1453.07800	-1048.56750	467.93530	1124.77368	-1048.46167	615.74414	1373.27112	-1051.52417	651.63898	1197.38745	-984.53271	426.19427	1284.44873	-1213.65613	577.83325	1406.13965	-1285.83374	611.90814	1206.67639	-1297.43042	633.44189	1095.83374	-1311.01282	702.17072	961.05792	-1256.78015	786.10504	869.20880	-1302.80115	737.70416	847.10559	-1296.94812	802.05450	784.32214	-891.98773	559.85907	1406.64514	-807.17767	511.17960	1209.28442	-795.06354	516.98639	1087.11682	-777.56909	532.50385	967.89734	-806.77002	595.32611	829.51935	-768.82959	539.99878	830.37061	-764.63574	578.60101	755.25604	-1143.99646	650.65460	960.41266	-922.59241	639.47247	972.61432	-1122.42310	491.21902	990.74780	-953.69354	488.70731	994.16711	-1188.80286	568.63373	644.90131	-1160.79456	555.11768	482.06183	-1140.87012	490.26135	232.44000	-1086.44458	465.71970	64.76850	-1040.84839	423.48071	54.04261	-1081.79590	610.04669	35.07369	-864.11804	660.46179	647.63062	-888.82141	705.23810	529.93909	-888.23193	619.70374	281.83817	-926.87170	567.66705	101.90036	-974.17584	527.51959	80.22109	-917.19141	709.35291	46.42530	-1046.75952	538.16345	1700.84375															 
226	2.250	-1087.94519	654.60620	1666.43323	-959.52704	630.85004	1647.90747	-1116.35999	525.36853	1611.20068	-989.64728	503.03738	1597.65137	-1060.98474	514.48065	1452.70313	-1049.19043	474.04987	1124.37244	-1048.88904	622.07562	1372.82898	-1052.10999	657.80701	1196.94543	-985.48389	432.28909	1283.97510	-1214.05652	584.53821	1405.88159	-1286.00781	619.69611	1206.50830	-1297.53015	642.12329	1095.78271	-1310.49866	712.71576	961.91876	-1255.49377	797.88879	871.65002	-1301.55579	749.98193	848.50232	-1295.16614	815.26501	786.82697	-892.41602	565.80280	1406.09399	-808.04388	516.36108	1208.62939	-796.08148	521.81201	1086.50012	-778.65161	536.77283	967.20239	-807.67664	599.18134	828.55609	-770.06897	543.82098	829.59753	-765.74500	581.75848	754.35919	-1144.72375	656.50763	959.87988	-923.06787	645.78241	972.37799	-1122.79907	497.03864	990.21661	-954.15179	494.99252	993.81042	-1188.57336	573.60913	644.42224	-1160.75879	559.11011	481.61771	-1140.81714	492.23370	232.43947	-1086.38110	466.04651	64.98152	-1040.82031	423.76282	54.49512	-1081.81335	610.29626	35.14938	-864.56952	667.35901	647.69733	-889.40454	712.82819	530.30743	-889.00525	635.12415	279.49670	-927.93219	589.39075	97.84942	-974.68903	548.84521	75.95676	-919.45612	732.89111	46.18190	-1046.65918	544.56427	1700.45410															 
227	2.260	-1087.73523	661.08893	1666.04138	-959.42725	637.16565	1647.29126	-1116.46240	531.90601	1610.92371	-989.76282	509.28812	1597.15259	-1061.46191	520.77362	1452.31189	-1049.80505	480.17889	1123.99780	-1049.17590	628.28223	1372.40417	-1052.58765	663.89978	1196.46753	-986.01819	438.28415	1284.08948	-1214.34814	591.10272	1405.37036	-1286.15222	627.46625	1206.29199	-1297.65308	650.65173	1095.68823	-1309.80603	723.01685	962.66180	-1254.11548	809.41931	874.03357	-1300.14246	761.92511	849.89606	-1293.31396	828.29938	789.35889	-892.77319	571.76770	1405.52856	-808.86267	521.62836	1208.05139	-797.02338	526.70575	1085.86816	-779.68182	541.15088	966.48834	-808.58643	602.95685	827.55890	-771.22626	547.46362	828.85797	-766.74915	585.05750	753.45569	-1145.34143	662.28632	959.26678	-923.58032	652.14630	972.10730	-1123.17712	502.82986	989.74902	-954.51251	501.16583	993.42877	-1188.56885	578.41071	643.92310	-1160.79688	562.90668	481.11716	-1140.83154	494.23193	232.42683	-1086.37610	466.39813	65.21924	-1040.80481	423.98444	54.93306	-1081.74146	610.45972	35.07816	-864.78088	674.11603	647.64233	-889.90576	720.21149	530.53510	-889.76062	650.44519	277.23563	-928.88165	611.12299	94.16778	-975.64673	571.43646	70.79779	-921.99774	756.18738	46.40177	-1046.53772	551.01849	1700.03027															 
